<svg xmlns="http://www.w3.org/2000/svg" viewBox="0 0 800 520" width="800" height="520">
  <rect width="800" height="520" fill="#faf5e6"/>

  <!-- connecting lines -->
  <g stroke="#d9c8a0" stroke-width="2">
    <line x1="400" y1="260" x2="150" y2="90"/>
    <line x1="400" y1="260" x2="650" y2="90"/>
    <line x1="400" y1="260" x2="120" y2="300"/>
    <line x1="400" y1="260" x2="680" y2="300"/>
    <line x1="400" y1="260" x2="220" y2="460"/>
    <line x1="400" y1="260" x2="580" y2="460"/>
  </g>

  <!-- clapperboard (center) -->
  <g transform="translate(340,205)">
    <rect x="0" y="30" width="120" height="85" rx="6" fill="#8a1c1c"/>
    <rect x="0" y="0" width="120" height="26" rx="4" fill="#5c1010"/>
    <g fill="#ffffff">
      <rect x="4" y="0" width="14" height="26" transform="skewX(-20)"/>
      <rect x="30" y="0" width="14" height="26" transform="skewX(-20)"/>
      <rect x="56" y="0" width="14" height="26" transform="skewX(-20)"/>
      <rect x="82" y="0" width="14" height="26" transform="skewX(-20)"/>
      <rect x="108" y="0" width="14" height="26" transform="skewX(-20)"/>
    </g>
    <circle cx="60" cy="75" r="18" fill="#ffffff" opacity="0.9"/>
    <circle cx="60" cy="75" r="7" fill="#c9a227"/>
  </g>

  <!-- factor nodes -->
  <g font-family="Helvetica, Arial, sans-serif" text-anchor="middle">
    <g transform="translate(150,90)">
      <circle r="60" fill="#f2e8cf" stroke="#8a6d1c" stroke-width="2"/>
      <text y="-4" font-size="15" font-weight="700" fill="#2b1d10">Genre</text>
      <text y="16" font-size="11" fill="#6b5738">Action, Drama,</text>
      <text y="30" font-size="11" fill="#6b5738">Comedy...</text>
    </g>

    <g transform="translate(650,90)">
      <circle r="60" fill="#f2e8cf" stroke="#8a6d1c" stroke-width="2"/>
      <text y="-10" font-size="15" font-weight="700" fill="#2b1d10">Budget &amp;</text>
      <text y="8" font-size="15" font-weight="700" fill="#2b1d10">Marketing</text>
      <text y="26" font-size="11" fill="#6b5738">production spend</text>
    </g>

    <g transform="translate(120,300)">
      <circle r="60" fill="#f2e8cf" stroke="#8a6d1c" stroke-width="2"/>
      <text y="-4" font-size="15" font-weight="700" fill="#2b1d10">Cast &amp;</text>
      <text y="14" font-size="15" font-weight="700" fill="#2b1d10">Crew</text>
    </g>

    <g transform="translate(680,300)">
      <circle r="60" fill="#f2e8cf" stroke="#8a6d1c" stroke-width="2"/>
      <text y="-10" font-size="15" font-weight="700" fill="#2b1d10">Language &amp;</text>
      <text y="8" font-size="15" font-weight="700" fill="#2b1d10">Region</text>
      <text y="26" font-size="11" fill="#6b5738">audience reach</text>
    </g>

    <g transform="translate(220,460)">
      <circle r="55" fill="#f2e8cf" stroke="#8a6d1c" stroke-width="2"/>
      <text y="-4" font-size="15" font-weight="700" fill="#2b1d10">Release</text>
      <text y="14" font-size="15" font-weight="700" fill="#2b1d10">Timing</text>
    </g>

    <g transform="translate(580,460)">
      <circle r="55" fill="#f2e8cf" stroke="#8a6d1c" stroke-width="2"/>
      <text y="-10" font-size="14" font-weight="700" fill="#2b1d10">Audience</text>
      <text y="8" font-size="14" font-weight="700" fill="#2b1d10">Reception</text>
      <text y="26" font-size="10" fill="#6b5738">ratings vs. buzz</text>
    </g>
  </g>
</svg>
